<svg width="307" height="422" viewBox="0 0 307 422" fill="none" xmlns="http://www.w3.org/2000/svg">
<path d="M251.846 221.059C251.032 218.781 251.317 218.252 251.846 216.177C252.985 211.784 261.772 209.831 266.206 201.248C269.054 195.797 278.695 197.546 284.39 192.298C288.458 188.556 283.495 186.684 293.624 180.623C309.042 171.389 306.723 161.626 306.113 161.382C305.096 160.975 305.258 163.904 304.079 165.409C298.587 172.406 262.179 159.795 231.425 180.42C218.041 189.369 208.766 201.776 206.285 217.275C204.495 228.625 208.237 234.361 212.265 233.303C217.024 232.042 213.526 235.256 216.536 239.486C228.943 257.141 254.938 229.52 251.846 221.059Z" fill="#7CA417"/>
<path d="M92.6665 250.958C107.677 265.399 118.824 254.09 128.424 242.537C130.743 239.771 137.414 249.656 145.55 239.202C158.283 222.726 141.686 199.824 124.315 148.079C122.2 141.733 102.714 95.9685 90.958 76.2795C85.1815 66.5977 78.7541 59.8856 73.2623 57.0787C59.3092 49.8784 49.5461 54.4345 48.5291 48.4953C47.7969 44.1426 51.2953 43.1663 49.1393 42.2306C46.4138 41.0509 39.8237 59.2754 41.1661 77.4185C42.2238 91.6564 47.3087 96.9448 52.7598 112.688C58.0888 128.065 56.9905 133.801 60.611 158.9C67.4452 206.495 70.8622 230.008 92.6665 250.958Z" fill="#346E00"/>
<path d="M160.724 419.657C161.944 407.046 163.246 394.435 164.914 381.825C166.581 369.214 168.534 356.685 171.016 344.196C173.497 331.748 176.467 319.341 180.087 307.177C183.708 294.974 188.06 283.014 193.267 271.379C198.474 259.786 204.576 248.558 211.817 238.063C219.058 227.608 227.438 217.886 236.957 209.465C246.476 201.044 257.175 193.925 268.687 188.556C270.152 187.905 271.576 187.254 273.04 186.603L277.393 184.732C280.281 183.471 283.169 182.169 285.976 180.704C288.783 179.24 291.509 177.653 294.072 175.823C296.634 173.992 299.034 171.877 300.987 169.355C299.075 171.877 296.716 174.033 294.194 175.945C291.631 177.816 288.905 179.484 286.139 180.989C283.332 182.494 280.485 183.837 277.596 185.179L273.284 187.132C271.86 187.783 270.437 188.474 269.013 189.166C257.663 194.698 247.168 201.939 237.852 210.441C228.537 218.943 220.401 228.666 213.404 239.161C206.407 249.656 200.549 260.843 195.586 272.437C190.623 284.031 186.515 295.95 183.097 308.113C179.68 320.236 176.914 332.562 174.677 344.969C172.399 357.376 170.649 369.865 169.185 382.435C167.721 394.964 166.622 407.575 165.605 420.186L160.724 419.657Z" fill="#346E00"/>
<path d="M83.7984 102.396C75.0929 115.902 61.4652 118.871 61.2212 118.465C60.9364 117.936 73.3437 113.258 80.1372 99.752C74.2793 95.9688 67.4045 93.4466 59.3499 92.7957C44.0137 91.5753 49.6275 87.9955 37.0168 83.7648C20.4601 78.1917 13.6666 77.785 10.0462 78.924C4.18829 80.7952 3.98489 75.7916 3.04925 76.7273C2.43906 77.3375 -2.56453 89.2159 5.44936 97.4332C9.68005 101.745 14.7243 99.9554 20.4602 106.301C23.5111 109.678 23.267 111.956 25.4637 116.309C30.2233 125.746 41.6136 124.241 43.2001 132.499C52.5971 181.355 70.008 184.366 85.7103 184.61C94.3751 184.732 92.992 177.287 98.4024 178.304C112.518 180.989 112.64 125.421 83.7984 102.396Z" fill="#9FBC50"/>
<path d="M160.805 66.069C173.456 75.9135 187.328 74.2049 187.409 73.7575C187.531 73.1879 174.27 72.8625 163.368 62.3672C167.639 56.8754 173.294 52.1972 180.657 48.9429C194.691 42.7189 188.223 41.2137 198.759 33.0371C212.549 22.2977 218.814 19.6535 222.597 19.5722C228.74 19.4094 227.276 14.6092 228.496 15.1788C229.269 15.5449 237.893 25.1046 233.093 35.4779C230.53 40.9697 225.16 40.929 221.865 48.8208C220.116 53.0108 221.092 55.0855 220.441 59.9264C219.058 70.3811 207.831 72.7405 209.051 81.0391C216.333 130.221 200.915 138.845 186.189 144.255C178.053 147.225 176.873 139.74 172.114 142.506C159.666 149.747 141.197 97.3517 160.805 66.069Z" fill="#346E00"/>
<path d="M162.961 32.3049C147.625 20.2231 140.791 8.46665 130.987 7.28694C125.576 6.63606 126.146 8.91412 120.98 4.96819C118.58 3.13761 116.668 0.330711 115.976 0.737508C115.325 1.1443 117.074 3.58509 116.749 6.51403C116.261 11.0701 111.135 12.4532 107.881 16.5212C105.481 19.5722 104.993 23.03 104.993 26.6098C114.43 30.7591 130.865 29.254 128.627 30.2303C126.309 31.2473 113.576 33.8508 105.196 33.5253C105.277 48.0073 99.1346 52.0345 95.1887 68.9166C92.1784 81.8121 93.7649 88.1174 94.0497 105.894C94.904 159.958 81.439 171.918 93.2768 193.722C94.5785 196.163 110.403 215.16 124.681 215.282C133.265 215.363 135.787 208.57 147.015 207.96C157.998 207.35 161.293 213.533 172.439 214.509C172.439 214.509 179.965 215.648 194.569 206.048C231.384 181.843 202.624 63.5062 162.961 32.3049Z" fill="#7CA417"/>
<path d="M265.921 121.312C264.904 115.332 261.894 112.932 262.952 107.481C263.318 105.528 264.131 103.576 263.48 103.128C262.626 102.559 259.941 105.366 259.128 106.098C252.334 112.566 236.876 110.247 233.622 109.881C214.136 107.766 188.589 129.57 176.67 143.523C171.138 149.991 149.171 175.741 155.517 203.485C155.761 204.502 157.429 224.516 171.504 226.55C180.453 227.811 184.277 217.56 194.081 220.123C200.508 221.791 203.193 226.265 209.214 226.835C217.187 227.567 224.184 217.804 225.77 215.445C231.466 206.902 228.415 202.793 233.622 187.498C236.062 180.338 238.137 174.358 243.1 167.687C247.656 161.585 251.521 159.185 253.88 156.012C249.243 157.476 243.466 157.191 237.039 155.076C232.645 153.652 228.903 150.561 229.35 150.072C229.716 149.625 234.639 152.798 241.025 152.351C249.69 151.74 253.88 149.015 256.362 146.859C256.117 141.489 253.961 137.055 255.833 135.957C257.338 135.062 259.168 137.747 261.528 137.055C265.108 135.957 267.06 127.983 265.921 121.312Z" fill="#346E00"/>
<path d="M112.966 223.865C97.7515 216.095 95.2294 217.56 85.8324 207.756C82.7814 204.583 80.9915 199.295 61.4246 191.403C56.9091 189.572 60.0415 186.562 59.3906 185.87C58.3329 184.772 53.8175 188.759 51.7021 193.64C46.8206 205.112 48.6512 214.224 52.1089 221.709C64.8417 229.032 73.2623 224.882 73.8725 226.469C74.0759 227.038 64.1094 229.642 56.2176 229.154C57.8041 231.757 59.3906 234.157 60.611 236.354C64.1094 242.741 63.7026 254.456 67.5672 266.131C83.4323 258.484 96.1243 260.436 96.1243 260.64C96.1243 260.68 94.8226 260.721 93.7649 260.924C80.544 263.487 74.6048 269.467 70.6995 273.454C73.9132 279.474 78.7948 285.17 86.5646 289.766C88.2325 290.743 95.0666 295.258 104.301 293.387C113.006 291.638 110.444 281.386 116.952 281.834C146.73 284.03 139.367 237.371 112.966 223.865Z" fill="#7CA417"/>
<path d="M165.402 412.904C175.206 387.926 183.382 362.298 188.345 335.979C190.827 322.839 192.454 309.537 192.901 296.153C193.105 289.482 193.023 282.81 192.616 276.139C192.169 269.467 191.396 262.837 190.176 256.287C189.85 254.66 189.566 253.033 189.199 251.365C188.833 249.697 188.508 248.029 188.182 246.361C187.572 243.026 187.003 239.649 186.637 236.232C185.823 229.439 185.538 222.604 185.823 215.77C186.108 208.936 186.921 202.143 188.386 195.471L188.955 192.99L189.565 190.508C190.013 188.881 190.42 187.254 190.908 185.586C191.844 182.332 192.901 179.077 194.122 175.904C196.522 169.517 199.451 163.375 203.03 157.558C206.61 151.781 210.8 146.371 215.641 141.611C218.041 139.211 220.645 137.014 223.33 134.98L225.404 133.516C226.096 133.028 226.828 132.58 227.52 132.092C228.943 131.197 230.408 130.302 231.872 129.489C237.771 126.153 244.076 123.59 250.585 121.8C244.117 123.753 237.893 126.438 232.116 129.895C230.652 130.75 229.269 131.685 227.845 132.621C227.154 133.109 226.462 133.557 225.77 134.085L223.777 135.591C221.133 137.665 218.651 139.943 216.292 142.343C211.614 147.144 207.587 152.595 204.21 158.371C200.834 164.148 198.068 170.29 195.871 176.636C194.772 179.809 193.796 183.023 192.942 186.237C192.535 187.864 192.128 189.491 191.722 191.118L191.152 193.559L190.664 196C189.403 202.549 188.752 209.221 188.63 215.892C188.549 222.564 188.955 229.235 189.891 235.825C190.338 239.12 190.949 242.415 191.64 245.67C192.006 247.297 192.372 248.924 192.739 250.592C193.145 252.219 193.511 253.928 193.837 255.596C195.22 262.267 196.196 269.061 196.806 275.854C197.417 282.648 197.661 289.482 197.579 296.316C197.457 309.944 196.115 323.571 193.918 336.996C189.484 363.885 181.796 390.123 172.48 415.629L165.402 412.904Z" fill="#7CA417"/>
<path d="M143.679 421.324C142.458 389.35 139.082 357.417 134.038 325.768C128.993 294.119 122.322 262.674 113.454 231.839C111.216 224.15 108.857 216.462 106.294 208.855C103.731 201.247 101.006 193.722 98.077 186.277C95.148 178.833 91.9343 171.47 88.4359 164.27C86.6866 160.69 84.8561 157.11 82.9034 153.612C80.9508 150.113 78.9168 146.655 76.8015 143.279C72.4488 136.567 67.6892 130.099 62.0348 124.485C61.3025 123.793 60.611 123.102 59.8787 122.41L57.6414 120.417L55.3226 118.546C54.5497 117.936 53.6954 117.366 52.9225 116.797C52.1089 116.227 51.2547 115.698 50.4004 115.169C49.5461 114.681 48.6918 114.152 47.7969 113.746C46.0476 112.81 44.1764 112.078 42.3458 111.223C40.5152 110.369 38.6846 109.352 37.1388 107.969C35.593 106.627 34.2505 105.04 33.1115 103.372C32.542 102.559 31.9725 101.704 31.403 100.891C30.8335 100.077 30.2233 99.2636 29.6131 98.4907C28.352 96.9448 26.9689 95.4804 25.4637 94.2193C23.9586 92.9175 22.25 91.8192 20.5008 90.9243C18.7109 90.0293 16.8397 89.2971 14.9684 88.6055C13.0971 87.914 11.1852 87.2224 9.47663 86.1241C8.62236 85.5952 7.80877 84.985 7.07653 84.2935C6.3443 83.6019 5.7341 82.7883 5.1239 81.9747C5.7341 82.7883 6.38497 83.5612 7.1172 84.2528C7.84944 84.9443 8.66304 85.5139 9.51731 86.0427C11.2259 87.0597 13.1378 87.7512 15.0497 88.4021C16.9617 89.053 18.8736 89.7039 20.6635 90.5988C22.4941 91.4938 24.2027 92.5921 25.7892 93.8532C27.3757 95.1549 28.7995 96.5787 30.1012 98.1246C30.7521 98.8975 31.3623 99.7111 31.9725 100.525C32.542 101.338 33.1522 102.193 33.7217 102.965C34.8607 104.593 36.2032 106.098 37.7083 107.359C39.2135 108.62 40.922 109.596 42.7526 110.369C44.5832 111.183 46.4544 111.915 48.285 112.81C49.2207 113.217 50.0749 113.746 50.9699 114.234C51.8648 114.763 52.7191 115.291 53.5734 115.82C54.387 116.39 55.2413 116.959 56.0548 117.569L58.4549 119.441L60.7737 121.393C61.5466 122.044 62.2788 122.776 63.0111 123.427C68.8689 129.041 73.8725 135.509 78.388 142.181C80.6254 145.557 82.7407 149.015 84.7747 152.473C86.8087 155.971 88.7206 159.551 90.5512 163.131C94.2124 170.331 97.5888 177.694 100.721 185.138C103.853 192.583 106.742 200.108 109.467 207.716C112.193 215.323 114.715 222.97 117.115 230.7C126.634 261.535 133.956 293.021 139.692 324.792C145.387 356.562 149.455 388.659 151.286 420.958L143.679 421.324Z" fill="#7CA417"/>
<path d="M160.48 408.022C153.808 376.74 149.333 344.928 146.445 312.995C143.598 281.061 142.377 248.924 143.435 216.869C143.72 208.855 144.126 200.841 144.737 192.868C145.347 184.854 146.16 176.881 147.177 168.948C148.194 161.015 149.537 153.083 151.123 145.232C151.937 141.327 152.832 137.421 153.849 133.557C154.866 129.692 156.005 125.868 157.266 122.044C159.829 114.478 162.88 107.034 166.988 100.199C167.517 99.3451 168.005 98.4908 168.575 97.6772L170.243 95.1958L172.033 92.7957C172.643 92.0227 173.294 91.2498 173.945 90.5176C174.595 89.7854 175.287 89.0531 175.979 88.3616C176.711 87.67 177.402 86.9785 178.175 86.3276C179.68 84.9852 181.267 83.8054 182.853 82.5444C184.44 81.2833 185.945 79.8188 187.084 78.1103C188.264 76.4018 189.159 74.5712 189.85 72.6592C190.216 71.7236 190.542 70.7473 190.908 69.8116C191.274 68.876 191.64 67.9404 192.088 67.0454C192.942 65.2555 193.918 63.5063 195.057 61.8791C196.237 60.2519 197.579 58.7874 199.085 57.445C200.59 56.1433 202.258 54.9636 203.885 53.8652C205.553 52.7262 207.221 51.5871 208.604 50.1227C209.295 49.3904 209.946 48.6175 210.475 47.7633C211.004 46.909 211.411 45.9734 211.777 45.0377C211.411 45.9734 210.963 46.8683 210.394 47.7226C209.824 48.5769 209.214 49.3498 208.482 50.0413C207.058 51.4651 205.39 52.5635 203.681 53.6618C202.014 54.7602 200.305 55.8585 198.759 57.2009C197.213 58.5027 195.83 60.0078 194.61 61.5944C193.389 63.2215 192.372 64.9708 191.477 66.8014C191.03 67.6963 190.623 68.6319 190.257 69.5676C189.891 70.5032 189.525 71.4388 189.159 72.3745C188.427 74.2457 187.532 75.995 186.352 77.5815C185.213 79.168 183.748 80.5104 182.203 81.7308C180.616 82.9512 178.989 84.1309 177.443 85.4326C176.67 86.0835 175.938 86.7751 175.165 87.4666C174.433 88.1989 173.741 88.8904 173.05 89.6633C172.399 90.4362 171.707 91.1685 171.056 91.9821L169.185 94.3822L167.436 96.8636C166.826 97.6772 166.337 98.5722 165.768 99.3858C161.456 106.261 158.202 113.746 155.435 121.353C154.093 125.177 152.873 129.041 151.774 132.906C150.676 136.811 149.699 140.716 148.764 144.662C146.974 152.554 145.509 160.487 144.289 168.46C143.069 176.433 142.092 184.447 141.36 192.502C140.587 200.515 139.977 208.57 139.57 216.625C137.902 248.843 138.472 281.183 140.709 313.361C142.987 345.538 146.893 377.675 152.995 409.446L160.48 408.022Z" fill="#7CA417"/>
<path d="M151.611 420.674C153.076 403.629 153.767 386.462 154.093 369.254C154.418 352.047 154.459 334.839 154.256 317.632C153.889 283.176 152.75 248.761 151.164 214.306C149.577 179.891 147.543 145.476 144.859 111.101C144.167 102.518 143.475 93.9345 142.662 85.3511L142.011 78.9237L141.319 72.4963C141.075 70.381 140.75 68.2656 140.221 66.191C139.733 64.1163 138.919 62.1637 137.984 60.2517C137.536 59.2754 137.089 58.2584 136.682 57.2414C136.316 56.2244 135.95 55.1668 135.665 54.1091C135.095 51.9938 134.729 49.8784 134.363 47.7224C133.672 43.451 133.143 39.1797 132.248 34.9897C131.394 30.7997 130.173 26.6097 128.383 22.7451C126.593 18.8398 124.153 15.2193 121.264 12.0463C124.234 15.1787 126.715 18.7585 128.627 22.6637C130.499 26.569 131.8 30.7183 132.777 34.949C133.712 39.1797 134.363 43.451 135.136 47.6817C135.543 49.7971 135.95 51.9124 136.56 53.9464C136.845 54.9634 137.211 55.9804 137.577 56.9567C137.984 57.933 138.431 58.9093 138.879 59.8856C139.855 61.7976 140.709 63.8722 141.279 65.9876C141.848 68.1029 142.214 70.2589 142.499 72.415L143.313 78.8423L144.086 85.2697C145.062 93.8531 145.916 102.437 146.77 111.02C150.066 145.354 152.71 179.769 154.947 214.184C157.144 248.599 158.934 283.095 159.951 317.591C160.439 334.839 160.764 352.128 160.724 369.417C160.683 386.706 160.317 403.995 159.137 421.365L151.611 420.674Z" fill="#346E00"/>
<path d="M140.302 421.65C139.652 401.473 137.902 381.296 134.729 361.363C131.556 341.43 127.041 321.659 120.735 302.459C117.562 292.858 113.983 283.38 109.833 274.186C105.684 264.952 101.006 256.002 95.6362 247.419C90.2664 238.876 84.2052 230.7 77.2083 223.377C75.459 221.547 73.6285 219.798 71.9199 217.926C70.2114 216.055 68.5842 214.102 67.0384 212.068C65.4925 210.034 64.0687 207.96 62.8077 205.763C62.1975 204.665 61.5873 203.526 61.1398 202.346C60.6923 201.166 60.2855 199.946 60.3262 198.644C60.3262 199.905 60.733 201.126 61.2212 202.305C61.7093 203.485 62.3195 204.583 62.9297 205.682C64.2315 207.878 65.6959 209.912 67.2824 211.906C68.8689 213.899 70.5368 215.811 72.286 217.642C74.0352 219.472 75.8658 221.181 77.6964 223.011C84.856 230.212 91.1207 238.307 96.6938 246.809C102.267 255.311 107.148 264.26 111.501 273.495C115.854 282.688 119.637 292.167 123.014 301.767C129.726 320.968 134.689 340.819 138.268 360.834C141.848 380.889 144.004 401.188 145.062 421.528L140.302 421.65Z" fill="#346E00"/>
</svg>
